<svg xmlns="http://www.w3.org/2000/svg" width="256" height="256" viewBox="0 0 100 100"><rect width="100" height="100" rx="20" fill="#303030"></rect><path d="M29.61 30.04L29.61 30.04Q37.03 30.04 41.06 35.15Q45.10 40.26 45.10 49.42L45.10 49.42Q45.10 58.72 40.99 63.79Q36.89 68.87 29.61 68.87L29.61 68.87Q25.82 68.87 22.84 67.50Q19.87 66.13 17.99 63.43L17.99 63.43L17.51 63.43Q16.45 67.53 16.25 68.18L16.25 68.18L11.84 68.18L11.84 15L17.99 15L17.99 27.92Q17.99 31.78 17.65 35.64L17.65 35.64L17.99 35.64Q21.78 30.04 29.61 30.04ZM28.59 35.13L28.59 35.13Q22.91 35.13 20.45 38.34Q17.99 41.56 17.99 49.21L17.99 49.21L17.99 49.49Q17.99 57.18 20.50 60.48Q23.02 63.77 28.72 63.77L28.72 63.77Q33.78 63.77 36.26 60.07Q38.74 56.36 38.74 49.35L38.74 49.35Q38.74 42.24 36.24 38.69Q33.75 35.13 28.59 35.13ZM72.68 68.87L72.68 68.87Q65.12 68.87 61.06 63.43L61.06 63.43L60.65 63.43L60.78 64.83Q61.06 67.50 61.06 69.58L61.06 69.58L61.06 85L54.90 85L54.90 30.65L59.96 30.65L60.78 35.78L61.06 35.78Q63.24 32.71 66.12 31.34Q68.99 29.97 72.75 29.97L72.75 29.97Q80.06 29.97 84.11 35.05Q88.16 40.12 88.16 49.35L88.16 49.35Q88.16 58.54 84.09 63.71Q80.03 68.87 72.68 68.87ZM71.65 35.13L71.65 35.13Q66.08 35.13 63.60 38.28Q61.13 41.42 61.06 48.15L61.06 48.15L61.06 49.35Q61.06 56.97 63.59 60.37Q66.12 63.77 71.79 63.77L71.79 63.77Q76.51 63.77 79.16 59.95Q81.80 56.12 81.80 49.28L81.80 49.28Q81.80 42.41 79.16 38.77Q76.51 35.13 71.65 35.13Z" fill="#dbdbdb"></path></svg>